<?xml version="1.0" encoding="UTF-8"?> <svg xmlns="http://www.w3.org/2000/svg" width="2190" height="953" viewBox="0 0 2190 953" fill="none"><path d="M1191.02 62.4255C1192.14 62.3915 1193.25 62.3645 1194.37 62.3445C1226.65 61.8663 1259.23 62.4945 1291.46 62.0275C1333.19 61.4223 1371.95 70.8665 1402.49 100.76C1427.48 125.644 1441.57 159.437 1441.66 194.707C1442.33 259.437 1401.48 316.276 1336.6 329.303C1321.69 332.298 1306.69 332.005 1291.55 332.091C1274.75 331.911 1257.96 331.939 1241.16 332.177C1241.29 357.355 1241.72 382.654 1241 407.806C1240.92 415.491 1237.93 427.019 1233.09 432.645C1220.15 450.563 1163.57 448.586 1156.3 426.229C1150.72 409.038 1152.4 369.495 1152.4 350.361L1152.38 246.655L1152.34 154.144C1152.34 133.978 1151.84 114.172 1153.76 94.0575C1155.86 71.9265 1170.47 63.8875 1191.02 62.4255ZM1241.51 243.359C1253.35 243.676 1265.2 243.798 1277.05 243.727C1298.54 243.769 1322.07 245.809 1339.17 230.297C1348.87 219.431 1351.82 209.981 1352.08 195.481C1352.59 167.591 1331.21 150.135 1304.44 149.619C1283.62 149.218 1262.47 149.389 1241.44 149.815C1240.37 176.748 1241.8 204.343 1241.36 231.335C1241.3 235.224 1241.3 239.498 1241.51 243.359Z" fill="#010201"></path><path d="M1798.78 168.193C1814.01 167.081 1827.37 169.46 1832.86 185.213C1844.65 219.021 1863.76 259.688 1872.43 293.96C1876.35 279.282 1883.15 258.153 1888.71 243.904C1899.55 216.165 1902.54 172.528 1939.66 171.111C1958.21 170.403 1980.11 171.81 1987.89 191.708C2000.56 224.081 2012.77 260.144 2022.12 293.623C2022.8 291.362 2023.53 289.113 2024.3 286.878C2031.1 267.288 2038.71 246.108 2046.44 227.1C2060.42 192.728 2061.82 154.338 2110.29 172.158C2159.6 190.285 2141.03 218.067 2127.14 254.482C2117.61 279.001 2108.31 303.609 2099.24 328.303C2091.11 348.695 2083.27 369.2 2075.72 389.813C2071.64 400.628 2067.28 411.28 2063.23 422.081C2054.75 444.687 2023.13 451 2002.6 441.205C1996.54 438.372 1991.41 433.876 1987.8 428.241C1980.32 416.749 1973.85 395.245 1969.07 381.79C1961.72 361.394 1954.49 340.955 1947.38 320.474C1940.07 341.688 1932.62 362.852 1925.02 383.966C1920.14 397.748 1915.49 412.689 1908.79 425.666C1896.15 452.098 1846.52 451.859 1834.35 425.572C1822.78 400.563 1813.27 372.487 1803.28 346.569L1770.91 261.197C1765.11 245.809 1759.28 230.824 1754.27 215.148C1744.98 186.09 1775.78 173.436 1798.78 168.193Z" fill="#010201"></path><path d="M1576.5 169.331C1605.29 167.494 1627.67 175.5 1646.2 197.766C1646.61 196.09 1647.05 194.42 1647.52 192.759C1653.22 172.641 1667.46 170.4 1684.99 170.031C1712.61 169.45 1730.16 175.519 1730.47 206.284C1731.16 273.198 1731.01 340.65 1730.67 407.573C1730.45 433.991 1717.7 445.055 1691.39 444.828C1667.16 444.619 1658.06 445.587 1647.21 422.061C1647.12 421.563 1646.55 420.674 1646.28 420.167C1640.99 420.595 1630.07 432.943 1624.28 435.93C1587.5 454.874 1543.26 443.512 1512.31 418.31C1482.74 394.416 1464.14 359.538 1460.77 321.67C1456.72 283.43 1468.03 245.145 1492.22 215.253C1514.45 188.334 1541.74 172.633 1576.5 169.331ZM1600.96 354.631C1627.74 351.053 1646.61 326.552 1643.24 299.754C1639.87 272.955 1615.52 253.889 1588.7 257.05C1561.57 260.246 1542.25 284.928 1545.66 312.023C1549.07 339.118 1573.9 358.248 1600.96 354.631Z" fill="#010201"></path><path d="M1184.18 508.318C1187.68 508.113 1191.19 507.975 1194.69 507.905C1217.05 507.514 1240.44 508.254 1262.71 507.693C1312.7 506.074 1362.63 507.587 1401.33 544.612C1453.51 594.537 1455.51 687.661 1404.17 739.09C1369.3 774.015 1335.75 778.087 1289.05 778.484C1273.04 778.637 1256.74 778.448 1240.71 778.419C1240.48 800.159 1244.88 858.115 1235.24 874.423C1231.43 880.872 1225.58 885.136 1218.34 886.932C1203.71 890.562 1180.73 891.262 1167.58 882.958C1159.97 878.155 1156.14 870.137 1154.3 861.578C1150.83 845.494 1152.85 825.244 1152.85 808.746L1152.73 715.007L1152.68 609.842C1152.61 588.57 1152.38 567.436 1153.09 546.169C1153.81 524.464 1162.34 513.058 1184.18 508.318ZM1241.08 690.14L1278.72 690.305C1301.89 690.488 1320.2 692.85 1338.89 677.096C1363.73 648.69 1353.43 603.45 1316.41 596.967C1300.49 594.179 1258.05 594.879 1240.83 595.845L1241.08 690.14Z" fill="#010201"></path><path d="M1733.56 616.399C1764.02 614.082 1785.46 621.555 1806.36 643.727C1810.68 615.036 1830.84 616.444 1854.43 616.63C1875.39 616.795 1888.74 626.417 1888.98 648.455C1889.39 684.779 1889.18 721.138 1889.21 757.471L1889.24 820.962C1889.3 863.953 1896.22 890.774 1840.75 889.353C1801.67 888.351 1813.28 868.818 1802.57 863.476C1765.13 901.042 1713.75 895.361 1673.74 864.884C1644.88 842.972 1625.87 810.527 1620.87 774.642C1610.88 700.235 1656.53 626.509 1733.56 616.399ZM1761.48 799.807C1787.73 795.279 1805.42 770.45 1801.13 744.166C1796.85 717.883 1772.18 699.963 1745.86 704.008C1719.19 708.106 1700.99 733.165 1705.33 759.792C1709.67 786.42 1734.9 804.395 1761.48 799.807Z" fill="#010201"></path><path d="M2012.46 647.059C2026.75 625.044 2049.54 615.995 2075.12 615.616C2104.11 615.011 2132.13 626.124 2152.82 646.442C2205.4 697.946 2185.42 777.275 2189.53 843.421C2191.71 878.367 2177.9 889.674 2144.22 889.454C2106.46 889.207 2101.9 867.924 2103.26 835.132C2103.6 819.948 2103.55 802.602 2103.69 787.186C2103.83 760.854 2109.16 722.342 2082.07 707.338C2061.28 695.823 2026.33 703.473 2018.8 726.676C2004.6 770.441 2022.72 829.72 2008.81 873.405C2002.68 892.655 1957.64 892.189 1943.4 884.062C1922.55 873.636 1927.9 832.847 1927.91 812.647L1927.94 742.309C1927.96 712.232 1927.76 681.699 1928.19 651.624C1928.83 645.551 1928.95 637.403 1931.82 632.035C1938.42 619.714 1947.53 617.599 1960.43 616.408C1990.57 615.927 2004.87 613.278 2012.46 647.059Z" fill="#010201"></path><path d="M1503.61 491.395C1558.02 487.926 1557.8 506.331 1556.93 553.718C1556.7 566.102 1556.94 580.054 1556.94 592.65L1556.76 736.218C1556.69 752.776 1555.78 775.69 1557.79 791.952C1561.48 809.639 1584.13 799.671 1595.95 808.549C1608.57 818.031 1606.85 834.543 1607.02 848.634C1607.14 858.594 1605.48 869.733 1599.91 878.098C1594.19 886.674 1587.96 887.267 1578.56 888.915C1553.68 889.604 1519.46 888.597 1498.66 873.247C1466.26 849.331 1470.36 798.487 1470.34 762.572L1470.33 675.983L1470.27 579.005C1470.26 560.925 1469.89 542.935 1470.86 524.871C1472.11 501.635 1481.63 494.381 1503.61 491.395Z" fill="#010201"></path><path d="M180.203 809.541C184.116 816.893 184.486 819.446 181.818 827.292C174.872 823.637 176.137 814.841 180.203 809.541Z" fill="#030815"></path><path d="M476.795 855.299C420.285 887.718 349.867 921.832 284.617 911.219C179.318 894.093 156.686 772.729 211.964 694.16C241.191 652.618 274.532 621.725 307.654 584.536C342.833 545.035 375.016 489.396 417.461 458.724C452.602 433.242 496.464 422.848 539.303 429.852C601.624 440.156 635.35 478.557 671.772 525.62C687.462 547.037 705.67 566.899 722.046 587.633C744.021 615.455 776.014 641.558 796.224 669.855C806.862 679.815 827.67 714.821 831.769 728.759C834.631 734.835 836.466 741.73 838.313 748.125C857.225 813.594 824.988 891.678 754.924 908.9C688.431 925.245 607.839 889.047 550.913 854.996C571.528 839.381 591.337 822.731 610.267 805.11C649.326 768.015 689.612 720.315 690.872 663.824C691.465 637.271 682.822 611.719 664.284 592.406C646.467 573.954 621.986 563.428 596.337 563.192C559.947 562.617 537.762 576.498 512.834 600.605C506.999 594.197 500.583 588.343 493.668 583.119C470.621 565.986 445.019 560.819 417.147 564.585C360.941 572.265 327.665 626.046 336.902 680.414C345.438 730.653 379.89 769.596 415.431 803.662C434.376 821.821 455.629 839.8 476.795 855.299Z" fill="#FAD55A"></path><path d="M425.844 603.246C450.821 600.553 473.534 612.001 487.781 632.394C493.701 640.866 501.082 657.865 512.821 657.194C529.224 656.257 534.766 634.779 545.417 624.332C559.124 610.889 573.519 603.168 593.051 602.845C626.66 601.39 651.1 627.783 651.21 660.798C651.352 703.291 619.448 738.617 591.706 767.477C566.416 792.563 542.008 811.917 513.534 832.84C507.273 828.684 498.261 822.039 492.121 817.169C446.849 780.452 386.256 731.925 375.641 671.363C369.866 638.416 392 607.101 425.844 603.246Z" fill="#6ED0EF"></path><path d="M40.3126 421.658C36.9298 392.402 39.3152 357.34 58.4071 333.231C85.8415 298.588 126.928 303.655 159.717 328.692C212.745 369.183 244.875 467.327 201.22 524.446C160.993 577.081 86.9403 534.867 63.093 487.784C61.7784 485.342 59.6064 482.419 58.6428 479.924C49.4198 467.473 42.148 436.992 40.3126 421.658Z" fill="#FAD55A"></path><path d="M911.148 309.383C958.306 302.647 981.425 344.835 985.948 385.525C990.336 428.737 977.766 471.964 950.89 506.085C934.338 526.728 910.504 545.029 883.487 548.066C867.245 549.594 849.665 546.571 836.847 535.724C765.152 475.051 824.124 320.829 911.148 309.383Z" fill="#6ED0EF"></path><path d="M773.282 229.242C764.374 269.515 732.033 317.248 692.648 332.934C642.021 353.097 600.365 323.649 582.52 275.675C564.214 224.303 568.57 175.067 588.657 124.808C615.361 57.9905 695.876 1.23068 752.008 72.8789C761.971 85.5958 766.548 97.8203 772.267 112.922C783.104 150.968 784.557 191.002 773.282 229.242Z" fill="#6ED0EF"></path><path d="M297.371 50.3923C324.054 33.6392 354.645 38.1262 380.282 54.4869C386.125 57.7863 398.986 67.5611 402.733 73.0987C454.554 124.192 471.931 229.273 435.537 293.096C431.59 305.446 411.524 324.555 399.668 330.917C384.147 340.037 359.588 341.706 342.386 335.925C259.822 308.179 229.128 194.756 251.766 118.055C259.01 93.5154 274.991 62.8316 297.371 50.3923Z" fill="#FAD55A"></path><path d="M504.868 388.477C542.631 387.361 579.991 396.506 612.968 414.939C630.284 424.983 646.151 437.34 660.131 451.669C690.505 482.277 718.003 522.495 746.562 556.374C776.56 591.958 819.183 631.023 844.45 668.399C858.278 688.94 868.677 711.593 875.239 735.471C888.281 783.123 884.408 831.834 859.569 875.053C839.198 910.402 805.551 936.148 766.106 946.569C681.036 969.544 589.652 922.919 518.006 881.943C512.782 878.456 508.305 882.258 503.611 885.115C415.822 938.563 288.384 990.633 198.31 913.1C139.798 862.407 130.798 781.506 158.24 712C181.226 651.796 233.21 611.491 273.641 563.632C285.653 549.015 299.347 534.053 310.413 518.783C361.516 448.271 411.33 394.39 504.868 388.477ZM539.304 429.852C496.465 422.848 452.603 433.242 417.462 458.724C375.017 489.396 342.833 545.036 307.654 584.537C274.532 621.725 241.192 652.619 211.965 694.161C156.687 772.73 179.319 894.093 284.617 911.219C349.867 921.832 420.286 887.718 476.796 855.299C455.63 839.8 434.377 821.822 415.432 803.663C379.891 769.597 345.438 730.653 336.902 680.415C327.665 626.047 360.941 572.265 417.147 564.585C445.019 560.819 470.622 565.987 493.669 583.12C500.584 588.344 507 594.197 512.835 600.605C537.763 576.498 559.948 562.617 596.338 563.192C621.987 563.428 646.467 573.954 664.284 592.406C682.822 611.719 691.465 637.272 690.872 663.825C689.612 720.315 649.326 768.015 610.268 805.11C591.338 822.731 571.528 839.382 550.913 854.997C607.839 889.048 688.432 925.245 754.925 908.9C824.988 891.678 857.225 813.594 838.313 748.125C836.466 741.731 834.632 734.835 831.77 728.759C827.671 714.821 806.863 679.815 796.225 669.855C776.015 641.558 744.022 615.455 722.047 587.633C705.671 566.899 687.462 547.038 671.772 525.621C635.35 478.558 601.625 440.156 539.304 429.852ZM651.21 660.798C651.1 627.783 626.66 601.39 593.051 602.845C573.519 603.168 559.124 610.89 545.417 624.333C534.766 634.78 529.224 656.257 512.821 657.194C501.082 657.865 493.701 640.866 487.781 632.394C473.534 612.001 450.821 600.553 425.844 603.246C392 607.101 369.866 638.416 375.641 671.363C386.256 731.925 446.849 780.452 492.121 817.168C498.261 822.038 507.273 828.683 513.534 832.839C542.008 811.916 566.416 792.562 591.706 767.476C619.448 738.616 651.352 703.291 651.21 660.798Z" fill="#010201"></path><path d="M93.8638 270.292C177.788 259.818 242.294 347.077 256.195 420.756C269.517 491.361 246.993 572.289 168.06 587.139C78.973 598.178 13.5672 510.441 2.02881 430.798C-7.79274 363.005 17.2871 281.345 93.8638 270.292ZM159.717 328.693C126.928 303.656 85.8421 298.588 58.4077 333.231C39.3158 357.34 36.9302 392.402 40.313 421.658C42.1484 436.992 49.4202 467.473 58.6431 479.924C59.6067 482.419 61.7787 485.343 63.0933 487.785C86.9406 534.868 160.993 577.081 201.22 524.447C244.875 467.328 212.745 369.184 159.717 328.693Z" fill="#010201"></path><path d="M905.953 270.339C972.891 262.458 1014.83 311.442 1023.91 373.734C1031.22 427.253 1017.44 481.519 985.482 525.066C961.01 557.768 929.08 581.25 888.052 587.233C820.018 593.198 777.816 547.627 767.788 482.959C754.463 397.031 814.492 283.553 905.953 270.339ZM985.949 385.525C981.426 344.835 958.306 302.648 911.148 309.384C824.125 320.83 765.153 475.051 836.848 535.724C849.666 546.571 867.246 549.594 883.488 548.066C910.505 545.029 934.339 526.728 950.891 506.086C977.767 471.965 990.337 428.737 985.949 385.525Z" fill="#010201"></path><path d="M698.19 0C772.595 9.60718 806.648 69.4568 817.726 139.063C832.455 231.603 780.228 364.331 676.392 377.699C646.544 381.64 616.357 373.517 592.518 355.128C494.641 279.174 523.099 86.6328 622.186 22.9609C645.496 7.98274 661.625 3.26592 688.595 0H698.19ZM752.008 72.8789C695.876 1.23091 615.362 57.9905 588.658 124.808C568.571 175.067 564.215 224.303 582.521 275.675C600.366 323.649 642.022 353.097 692.649 332.934C732.034 317.247 764.375 269.515 773.283 229.242C784.558 191.002 783.104 150.968 772.267 112.922C766.548 97.8205 761.971 85.5958 752.008 72.8789Z" fill="#010201"></path><path d="M337.783 0.000976562C367.314 3.30811 388.984 10.9926 412.64 29.8203C459.025 66.7372 484.586 123.325 491.763 181.242C498.095 232.348 488.613 290.388 456.679 331.814C438.23 356.009 409.113 374.649 378.433 377.787C282.036 387.643 215.894 287.398 207.567 201.713C202.079 145.231 210.202 89.5683 246.326 44.208C269.444 15.1784 294.885 4.00648 330.612 0.000976562H337.783ZM380.283 54.4873C354.646 38.1266 324.055 33.6395 297.372 50.3926C274.992 62.8319 259.01 93.5157 251.766 118.056C229.128 194.757 259.822 308.18 342.386 335.926C359.588 341.707 384.147 340.037 399.668 330.917C411.524 324.555 431.59 305.447 435.538 293.097C471.932 229.274 454.555 124.192 402.734 73.0986C398.987 67.5611 386.126 57.7869 380.283 54.4873Z" fill="#010201"></path></svg> 